<?xml version="1.0" encoding="UTF-8"?>
<svg xmlns="http://www.w3.org/2000/svg"
     viewBox="550 -60 4050 1120"
     preserveAspectRatio="xMinYMid meet">
  <defs>
    <style>
      .cls-1 { font-family: ShieldRegular, Shield; font-size: 796px; }
      .cls-2 { letter-spacing: -.07em; }
    </style>
  </defs>

  <g id="Layer_1" data-name="Layer 1">
    <text class="cls-1" transform="translate(1534.05 817.71)">
      <tspan class="cls-2" x="0" y="0">T</tspan><tspan x="357.41" y="0">oolkit</tspan>
    </text>
  </g>

  <g id="Layer_4" data-name="Layer 4">
    <path d="M1025.62,530.3l-.3,503.72,433.38-252.35-.2-500.14-432.88,248.76ZM1350.84,557.11l-31.61,54.97,31.62,18.39v88.61s-76.41,44.35-76.41,44.35l-31.7-18.37-31.75,55.19-76.74,44.54h0s.03-88.92.03-88.92l31.82-55.22-31.8-18.42.03-88.84,76.72-44.23,31.72,18.44,31.68-55,76.38-44.04v88.54Z"/>
    <polygon points="793.05 251.73 847.3 283.23 1172.88 94.17 1281.52 157.04 955.89 346.28 1010.23 377.83 1335.88 188.5 1444.7 251.47 1010.25 504.24 575.96 251.82 1010.15 0 1118.61 62.77 793.05 251.73"/>
    <path d="M667.99,469.61l174.13,99.79c24.4,13.98,44.14,48.1,44.07,76.16l-.38,149.78c-.07,27.91-19.85,39.13-44.16,25.09l-173.47-100.2-.19-250.62M559.17,281.52l1.2,500.74,434.19,251.77,2.09-502.78-437.48-249.72h0Z"/>
  </g>
</svg>
